<mxfile host="app.diagrams.net" modified="2022-02-23T03:09:11.791Z" agent="5.0 (X11)" etag="B3zq2dsEklCBTVHAV8FJ" version="16.5.4" type="github">
  <diagram id="1GtBn0aFqDrYAGzryYMK" name="Page-1">
    <mxGraphModel dx="1099" dy="799" grid="1" gridSize="10" guides="1" tooltips="1" connect="1" arrows="1" fold="1" page="1" pageScale="1" pageWidth="1654" pageHeight="2336" math="0" shadow="0">
      <root>
        <mxCell id="0" />
        <mxCell id="1" parent="0" />
        <mxCell id="bADBpg7-ClzOq8nuIWlr-3" value="" style="edgeStyle=orthogonalEdgeStyle;rounded=0;orthogonalLoop=1;jettySize=auto;html=1;" parent="1" source="bADBpg7-ClzOq8nuIWlr-1" target="bADBpg7-ClzOq8nuIWlr-2" edge="1">
          <mxGeometry relative="1" as="geometry" />
        </mxCell>
        <mxCell id="bADBpg7-ClzOq8nuIWlr-1" value="&lt;div&gt;CallbackNavCmd(mission)&lt;/div&gt;&lt;div&gt;车道导航回调函数，接收终点任务消息&lt;br&gt;&lt;/div&gt;" style="rounded=0;whiteSpace=wrap;html=1;" parent="1" vertex="1">
          <mxGeometry x="480" y="210" width="150" height="60" as="geometry" />
        </mxCell>
        <mxCell id="bADBpg7-ClzOq8nuIWlr-5" value="" style="edgeStyle=orthogonalEdgeStyle;rounded=0;orthogonalLoop=1;jettySize=auto;html=1;" parent="1" source="bADBpg7-ClzOq8nuIWlr-2" edge="1">
          <mxGeometry relative="1" as="geometry">
            <mxPoint x="555" y="420" as="targetPoint" />
          </mxGeometry>
        </mxCell>
        <mxCell id="bADBpg7-ClzOq8nuIWlr-2" value="&lt;div&gt;NavigationStart()&lt;/div&gt;&lt;div&gt;导航开始主函数&lt;br&gt;&lt;/div&gt;" style="whiteSpace=wrap;html=1;rounded=0;" parent="1" vertex="1">
          <mxGeometry x="495" y="320" width="120" height="60" as="geometry" />
        </mxCell>
        <mxCell id="bADBpg7-ClzOq8nuIWlr-8" value="" style="edgeStyle=orthogonalEdgeStyle;rounded=0;orthogonalLoop=1;jettySize=auto;html=1;" parent="1" source="bADBpg7-ClzOq8nuIWlr-6" edge="1">
          <mxGeometry relative="1" as="geometry">
            <mxPoint x="555" y="520" as="targetPoint" />
          </mxGeometry>
        </mxCell>
        <mxCell id="bADBpg7-ClzOq8nuIWlr-6" value="&lt;div&gt;NavgationPath()&lt;/div&gt;&lt;div&gt;车道级导航主进程函数&lt;br&gt;&lt;/div&gt;" style="rounded=0;whiteSpace=wrap;html=1;" parent="1" vertex="1">
          <mxGeometry x="495" y="420" width="120" height="60" as="geometry" />
        </mxCell>
        <mxCell id="bADBpg7-ClzOq8nuIWlr-11" value="" style="edgeStyle=orthogonalEdgeStyle;rounded=0;orthogonalLoop=1;jettySize=auto;html=1;" parent="1" source="bADBpg7-ClzOq8nuIWlr-9" target="bADBpg7-ClzOq8nuIWlr-10" edge="1">
          <mxGeometry relative="1" as="geometry" />
        </mxCell>
        <mxCell id="bADBpg7-ClzOq8nuIWlr-14" value="" style="edgeStyle=orthogonalEdgeStyle;rounded=0;orthogonalLoop=1;jettySize=auto;html=1;" parent="1" source="bADBpg7-ClzOq8nuIWlr-9" target="bADBpg7-ClzOq8nuIWlr-13" edge="1">
          <mxGeometry relative="1" as="geometry" />
        </mxCell>
        <mxCell id="bADBpg7-ClzOq8nuIWlr-9" value="&lt;div&gt;struct_nav_.NavgationPath()&lt;/div&gt;&lt;div&gt;结构化道路导航任务&lt;/div&gt;&lt;div&gt;是否成功&lt;br&gt;&lt;/div&gt;&lt;div&gt;&lt;br&gt;&lt;/div&gt;" style="rhombus;whiteSpace=wrap;html=1;" parent="1" vertex="1">
          <mxGeometry x="430" y="520" width="250" height="90" as="geometry" />
        </mxCell>
        <mxCell id="bADBpg7-ClzOq8nuIWlr-10" value="导航失败" style="whiteSpace=wrap;html=1;" parent="1" vertex="1">
          <mxGeometry x="750" y="542.5" width="100.01" height="45" as="geometry" />
        </mxCell>
        <mxCell id="bADBpg7-ClzOq8nuIWlr-12" value="否" style="text;html=1;align=center;verticalAlign=middle;resizable=0;points=[];autosize=1;strokeColor=none;fillColor=none;" parent="1" vertex="1">
          <mxGeometry x="695" y="540" width="30" height="20" as="geometry" />
        </mxCell>
        <mxCell id="bADBpg7-ClzOq8nuIWlr-18" value="" style="edgeStyle=orthogonalEdgeStyle;rounded=0;orthogonalLoop=1;jettySize=auto;html=1;" parent="1" source="bADBpg7-ClzOq8nuIWlr-13" edge="1">
          <mxGeometry relative="1" as="geometry">
            <mxPoint x="555" y="760" as="targetPoint" />
          </mxGeometry>
        </mxCell>
        <mxCell id="bADBpg7-ClzOq8nuIWlr-13" value="&lt;div&gt;UpdateLocPose()&lt;/div&gt;&lt;div&gt;实时更新当前位置&lt;br&gt;&lt;/div&gt;" style="whiteSpace=wrap;html=1;" parent="1" vertex="1">
          <mxGeometry x="495" y="660" width="120" height="60" as="geometry" />
        </mxCell>
        <mxCell id="bADBpg7-ClzOq8nuIWlr-16" value="是" style="text;html=1;align=center;verticalAlign=middle;resizable=0;points=[];autosize=1;strokeColor=none;fillColor=none;" parent="1" vertex="1">
          <mxGeometry x="565" y="620" width="30" height="20" as="geometry" />
        </mxCell>
        <mxCell id="wdhPrgVRZtb9WNIxPYCe-2" value="" style="edgeStyle=orthogonalEdgeStyle;rounded=0;orthogonalLoop=1;jettySize=auto;html=1;" edge="1" parent="1" source="bADBpg7-ClzOq8nuIWlr-19" target="wdhPrgVRZtb9WNIxPYCe-1">
          <mxGeometry relative="1" as="geometry" />
        </mxCell>
        <mxCell id="wdhPrgVRZtb9WNIxPYCe-5" value="" style="edgeStyle=orthogonalEdgeStyle;rounded=0;orthogonalLoop=1;jettySize=auto;html=1;" edge="1" parent="1" source="bADBpg7-ClzOq8nuIWlr-19" target="wdhPrgVRZtb9WNIxPYCe-4">
          <mxGeometry relative="1" as="geometry" />
        </mxCell>
        <mxCell id="bADBpg7-ClzOq8nuIWlr-19" value="&lt;div&gt;UpdateSection()&lt;/div&gt;&lt;div&gt;判断当前车道是否是执行道路&lt;/div&gt;&lt;div&gt;的最后一段&lt;br&gt;&lt;/div&gt;" style="rhombus;whiteSpace=wrap;html=1;" parent="1" vertex="1">
          <mxGeometry x="420" y="760" width="275" height="110" as="geometry" />
        </mxCell>
        <mxCell id="wdhPrgVRZtb9WNIxPYCe-7" style="edgeStyle=orthogonalEdgeStyle;rounded=0;orthogonalLoop=1;jettySize=auto;html=1;" edge="1" parent="1" source="wdhPrgVRZtb9WNIxPYCe-1">
          <mxGeometry relative="1" as="geometry">
            <mxPoint x="620" y="960" as="targetPoint" />
            <Array as="points">
              <mxPoint x="840" y="960" />
            </Array>
          </mxGeometry>
        </mxCell>
        <mxCell id="wdhPrgVRZtb9WNIxPYCe-1" value="更新global_road" style="whiteSpace=wrap;html=1;" vertex="1" parent="1">
          <mxGeometry x="780" y="785" width="120" height="60" as="geometry" />
        </mxCell>
        <mxCell id="wdhPrgVRZtb9WNIxPYCe-3" value="是" style="text;html=1;align=center;verticalAlign=middle;resizable=0;points=[];autosize=1;strokeColor=none;fillColor=none;" vertex="1" parent="1">
          <mxGeometry x="715" y="790" width="30" height="20" as="geometry" />
        </mxCell>
        <mxCell id="wdhPrgVRZtb9WNIxPYCe-9" value="" style="edgeStyle=orthogonalEdgeStyle;rounded=0;orthogonalLoop=1;jettySize=auto;html=1;" edge="1" parent="1" source="wdhPrgVRZtb9WNIxPYCe-4" target="wdhPrgVRZtb9WNIxPYCe-8">
          <mxGeometry relative="1" as="geometry" />
        </mxCell>
        <mxCell id="wdhPrgVRZtb9WNIxPYCe-4" value="&lt;div&gt;UpdateCurrentId()&lt;/div&gt;&lt;div&gt;更新当前车道&lt;br&gt;&lt;/div&gt;" style="whiteSpace=wrap;html=1;" vertex="1" parent="1">
          <mxGeometry x="497.5" y="930" width="120" height="60" as="geometry" />
        </mxCell>
        <mxCell id="wdhPrgVRZtb9WNIxPYCe-6" value="否" style="text;html=1;align=center;verticalAlign=middle;resizable=0;points=[];autosize=1;strokeColor=none;fillColor=none;" vertex="1" parent="1">
          <mxGeometry x="565" y="890" width="30" height="20" as="geometry" />
        </mxCell>
        <mxCell id="wdhPrgVRZtb9WNIxPYCe-11" value="" style="edgeStyle=orthogonalEdgeStyle;rounded=0;orthogonalLoop=1;jettySize=auto;html=1;" edge="1" parent="1" source="wdhPrgVRZtb9WNIxPYCe-8" target="wdhPrgVRZtb9WNIxPYCe-10">
          <mxGeometry relative="1" as="geometry" />
        </mxCell>
        <mxCell id="wdhPrgVRZtb9WNIxPYCe-8" value="global_road切分成若干个section_lane" style="whiteSpace=wrap;html=1;" vertex="1" parent="1">
          <mxGeometry x="497.5" y="1040" width="120" height="60" as="geometry" />
        </mxCell>
        <mxCell id="wdhPrgVRZtb9WNIxPYCe-13" value="" style="edgeStyle=orthogonalEdgeStyle;rounded=0;orthogonalLoop=1;jettySize=auto;html=1;" edge="1" parent="1" source="wdhPrgVRZtb9WNIxPYCe-10" target="wdhPrgVRZtb9WNIxPYCe-12">
          <mxGeometry relative="1" as="geometry" />
        </mxCell>
        <mxCell id="wdhPrgVRZtb9WNIxPYCe-10" value="&lt;div&gt;LaneDijkstra()&lt;/div&gt;&lt;div&gt;对每条lane进行Dijkstra搜索&lt;br&gt;&lt;/div&gt;" style="whiteSpace=wrap;html=1;" vertex="1" parent="1">
          <mxGeometry x="497.5" y="1138" width="120" height="60" as="geometry" />
        </mxCell>
        <mxCell id="wdhPrgVRZtb9WNIxPYCe-12" value="最终得到all_golbal_lanes" style="whiteSpace=wrap;html=1;" vertex="1" parent="1">
          <mxGeometry x="497.5" y="1240" width="120" height="60" as="geometry" />
        </mxCell>
      </root>
    </mxGraphModel>
  </diagram>
</mxfile>
